<svg width="12" height="16" fill="none" xmlns="http://www.w3.org/2000/svg"><path fill-rule="evenodd" clip-rule="evenodd" d="M5.236 15.112l.104.124c.405.48.66.764.66.764s.254-.284.659-.764a94.11 94.11 0 00.278-.333A49.993 49.993 0 009 12.243c.75-1.043 1.5-2.19 2.062-3.283C11.624 7.868 12 6.83 12 6A6 6 0 000 6c0 .829.375 1.868.937 2.96C1.5 10.053 2.25 11.2 3 12.243c.75 1.043 1.5 1.982 2.062 2.66l.097.117.074.089.003.003zm1.41-1.432a49.09 49.09 0 001.542-2.021 35.23 35.23 0 00.888-1.294c.407-.625.785-1.256 1.097-1.862C10.72 7.439 11 6.578 11 6A5 5 0 001 6c0 .578.279 1.439.826 2.503a15.504 15.504 0 00.294.544 22.534 22.534 0 00.803 1.318l.162.246a35.564 35.564 0 001.13 1.598 53.018 53.018 0 001.763 2.23c.006.01.014.018.022.027.053-.064.11-.13.167-.2l.04-.048c.136-.165.283-.345.438-.538zM6 8a2 2 0 100-4 2 2 0 000 4zm0 1a3 3 0 100-6 3 3 0 000 6z" fill="#fff"/></svg>