<svg width="337" height="1449" fill="none" xmlns="http://www.w3.org/2000/svg"><path d="M285.634 1404.75c15.83 16.17 32.006 32.28 51.366 44.25v-3.94c-13.268-7.59-24.737-17.76-35.167-28.8-13.453-14.25-28.752-26.72-41.328-41.78-15.322-18.81-20.629-43.14-25.798-66.24-3.9-16.92-4.5-34.4-3.646-51.69.9-14.65 6.115-28.57 7.73-43.12 2.169-14.53-1.2-29.05-4.315-43.19-6.461-26.65-11.353-53.63-16.614-80.53-4.384-24.1-12.715-47.29-15.876-71.64-4.707-33.225-11.907-66.173-13.845-99.767-1.639-16.139-.554-32.394-2.031-48.557-1.454-15.794.139-31.68 2.469-47.313 2.169-13.58 6.069-27.368 14.745-38.297 8.308-10.56 17.907-20.889 21.299-34.285 5.677-20.705-2.538-41.779-.346-62.668 2.584-17.846 18.114-29.375 30.69-40.58 16.937-13.119 30.437-30.02 42.066-47.866 7.431-11.436 11.93-24.74 12.253-38.412.693-23.034 9.623-46.368 27.714-61.308v-2.306c-17.053 11.136-25.821 30.85-29.306 50.264-2.515 15.217-1.823 31.68-10.199 45.283-9.922 16.416-21.829 31.726-36.021 44.707-13.383 12.658-30.228 23.172-37.613 40.788-8.676 23.84 5.931 49.341-2.699 73.228-5.538 18.86-23.629 30.319-29.883 48.788-5.653 15.609-6.922 32.325-8.607 48.695-1.638 16.209 1.892 32.28 1.915 48.443-.83 40.372 8.538 79.891 14.145 119.643 2.746 21.16 9.046 41.59 13.961 62.3 6.553 32.48 12.045 65.25 20.191 97.41 3.092 12.71 3.3 25.92 2.4 38.9-1.039 13.99-6.877 27.21-6.854 41.32-.138 16.76-.969 33.77 2.931 50.21 4.523 19.63 8.423 39.87 18.737 57.48 8.654 16.05 23.076 27.65 35.536 40.58z" fill="#fff"/><path d="M287.319 1389.31c16.868 13.65 32.028 29.3 49.681 41.98v-7.31c-17.86-15.68-36.251-30.75-53.766-46.82-9.668-9.02-18.552-19.21-23.675-31.52-2.907-5.28-4.523-12.66-11.168-14.37 3.553 23.98 20.813 43.19 38.928 58.04zM299.526 1380.38c11.26 11.97 25.106 21.03 37.474 31.78v-4.13c-12.53-9.18-23.468-20.64-37.474-27.65zM320.086 1382.62c4.753 5.51 10.707 9.73 16.914 13.42v-2.61c-4.961-4.56-10.73-8.14-16.914-10.81zM298.464 1354.93c11.607 11.2 25.798 19.09 38.536 28.84v-4.17c-13.107-8.46-26.26-17.02-37.521-27.88-11.537-11.04-18.806-25.77-23.698-40.78-4.315-13.08-3.577-27.05-3.323-40.61.393-22.62 9.969-44.01 9.461-66.72.946-28.96-11.168-55.98-15.068-84.3-6.092-33.89-2.677-68.41-3.738-102.62-1.246-24.72-4.454-49.483-11.93-73.163-7.061-21.65-10.892-44.591-9.346-67.394.9-15.448 7.546-30.966 19.891-40.696 12.415-9.683 27.783-14.133 42.182-19.967 12.691-5.049 23.583-13.742 33.09-23.402v-2.375c-11.053 7.839-20.768 17.961-33.621 22.918-15.068 5.88-31.013 10.699-43.774 21.028-14.03 11.298-20.952 29.49-21.829 47.105-.254 24.74 5.907 48.88 13.038 72.375 12.114 40.88 8.145 83.881 9.691 125.891 0 25.91 4.315 51.69 11.33 76.59 3.646 14.16 6.715 28.59 7.384 43.23 1.016 23.57-8.745 45.84-9.461 69.24-.646 15.08-1.176 30.6 3.669 45.13 5.1 15.49 12.992 30.48 25.037 41.73z" fill="#fff"/><path d="M266.02 1320.37c8.792 26.44 28.729 48.83 53.373 61.58-7.753-9.15-18.552-14.82-26.813-23.42-12.876-13.08-21.414-29.89-26.444-47.41-4.246-14.76-3-30.27-2.908-45.42.092-20.36 9.323-39.36 9.438-59.72 1.154-19.87-4.431-39.15-8.884-58.29-5.677-23.24-9.715-47.01-9.853-70.96-.093-13.86-2.239-27.63-2.285-41.48-.092-15.5.854-31.11-1.546-46.508-3.184-25.824-12.23-50.425-16.406-76.065-4.177-24.647-5.4-51.923 7.707-74.242 11.93-18.676 34.22-25.755 53.442-34.355 16.891-6.778 30.044-19.829 42.159-32.971v-2.352c-13.476 10.837-24.76 24.925-41.143 31.634-21.068 9.592-45.943 17.362-58.127 38.736-14.053 26.238-10.269 57.664-4.777 85.724 5.7 24.694 13.153 49.111 15.299 74.474 2.377 21.145-.3 42.445 1.708 63.595 1.846 17.54 1.292 35.29 4.315 52.73 3.623 26.49 13.176 51.87 15.576 78.57 1.638 17.23-3.277 33.99-6.969 50.61-4.546 24.93-5.769 51.37 3.138 75.54zM276.058 1357.56c4.407 9.73 12.922 16.85 22.083 21.97-6.023-8.53-13.73-15.75-22.083-21.97z" fill="#fff"/><path d="M317.801 1357.3c5.861 5.72 12.599 10.4 19.199 15.22v-4.66c-6.069-4.12-12.484-7.67-19.199-10.56zM303.679 1335.98c9.023 11.46 21.576 19.13 33.321 27.43v-7.05c-9.138-7.17-19.268-13.31-26.791-22.32-9.553-11.32-16.545-25.43-17.052-40.44-.439-9.32-.231-18.66.161-27.99.623-17.8 7.292-34.86 7.084-52.76 1.062-21.85-4.453-43.23-9.576-64.28-5.699-21.14-9.253-42.98-9.207-64.93.023-25.34.046-50.7.3-76.04.485-21.072-2.769-42.169-9.53-62.136-6.853-21.005-14.907-43.277-9.992-65.642 3.162-16.163 14.745-30.574 30.621-35.761 15.253-4.958 29.883-11.552 43.982-19.23v-7.447c-14.676 8.9-30.575 15.379-46.704 21.12-16.892 5.903-29.86 20.797-33.414 38.32-5.168 26.193 2.908 52.385 11.607 76.871 13.753 40.58 4.846 83.605 6.046 125.355.046 20.69 2.907 41.3 7.776 61.38 5.169 21.56 11.33 43.12 12.277 65.39 1.153 25.02-9.554 48.77-8.677 73.81-1.431 20.19 4.984 40.64 17.768 56.35z" fill="#fff"/><path d="M263.159 1339.57c2.63 6.39 6.876 11.95 11.699 16.86-9.207-18.54-18.506-37.45-21.137-58.27-4.454-23.58.069-47.61 5.884-70.53 3.831-14.71 5.031-30.22 1.823-45.17-6.253-30.48-14.514-60.73-16.799-91.88-1.361-17.64-3.207-35.25-4.292-52.91-.069-27.19-2.538-54.508-9.23-80.908-6.484-26.423-11.399-53.399-11.791-80.676 0-20.82 4.869-43.07 19.844-58.471 20.653-20.775 52.612-25.709 71.834-48.327 8.653-10.168 16.868-20.705 26.006-30.504v-4.266c-14.791 14.803-25.706 33.409-42.805 45.791-17.699 11.851-38.813 18.376-54.758 32.902-13.753 12.566-20.652 31.034-22.175 49.272-2.815 35.208 4.777 70.069 13.014 104.078 4.869 19.391 5.7 39.449 7.131 59.299.092 23.2 2.815 46.23 4.753 69.29 2.031 23.86 7.2 47.29 12.784 70.53 3.346 15.72 7.223 31.93 4.454 48.05-2.746 16.76-8.354 32.97-9.715 49.96-2.654 25.96 2.884 52.2 13.476 75.88z" fill="#fff"/><path d="M284.065 1316.24c6.784 16.12 16.845 32.23 32.79 40.6-5.653-7.24-12.622-13.28-18.229-20.5-11.584-15.56-18.391-34.86-17.122-54.36-1.569-28.16 11.007-54.9 9.161-83.03-1.8-33.73-16.199-65.27-17.953-99.03-.6-21.67-3.023-43.39-.969-65.06 2.169-23.36-.277-46.925-4.984-69.821-3.739-18.56-11.907-36.014-14.238-54.875-2.4-17.546-3.392-36.614 5.561-52.615 8.469-16.117 26.445-23.449 42.897-28.683 13.361-4.035 25.476-11.39 36.021-20.451v-2.352c-12.138 7.909-24.137 16.578-38.282 20.498-18.091 5.441-37.521 14.848-45.136 33.34-11.053 25.108-5.007 53.399 2.631 78.554 10.523 30.204 14.676 62.595 12.046 94.465-1.777 29.9-.231 59.97 4.407 89.57 3.853 24.54 13.13 47.98 14.676 72.91 2.953 25.43-7.754 49.73-8.238 74.96-.231 15.35-1.385 31.45 4.961 45.88z" fill="#fff"/><path d="M297.426 1293.48c1.315 24.44 18.783 45.08 39.574 56.49v-2.28c-11.215-9.04-23.237-17.99-29.975-31.08-7.799-13.28-7.407-29.15-6.853-44.02.369-16.67 5.93-32.92 4.43-49.71-5.446 23.04-8.33 46.92-7.176 70.6z" fill="#fff"/><path d="M307.694 1299.92c3.3 17.22 15.899 30.34 29.306 40.69v-4.22c-15.784-10.49-27.506-28.11-27.69-47.43-2.008-29.23 7.984-57.94 4.038-87.2-2.031-34.7-16.638-67.25-18.091-102.02-2.562-23.8.507-47.62.876-71.43 2.954-22.02.67-44.318-3.576-66.014-4.061-20.567-15.761-39.335-15.691-60.732-1.039-15.056 5.376-31.242 18.829-39.035 13.199-7.563 27.714-12.52 41.305-19.344v-4.474c-9.392 5.857-19.522 10.33-29.629 14.711-11.699 4.98-24.044 11.712-29.005 24.163-8.608 20.59-3 43.808 4.961 63.683 13.845 35.761 10.43 74.722 8.999 112.172-3.484 21.9-.392 43.99 2.031 65.85 3.092 23.15 11.607 45.21 14.376 68.43 1.8 14.96 3.876 30.11 1.961 45.19-2.838 22.14-6.484 44.71-3 67.01z" fill="#fff"/><path d="M242.022 1314.19c1.592 6.59 3.046 14.75 10.176 17.64-.531-9.04-3.184-17.71-5.377-26.43-4.153-16.14-4.638-33.08-2.607-49.57 2.1-17.61 9.553-34.31 9.853-52.18.485-17.45-4.915-34.24-8.745-51.04-10.292-49.37-15.622-99.59-21.091-149.67-3.3-27.041-9.438-53.648-13.43-80.579-2.7-35.415-8.746-73.689 8.099-106.706 9.069-19.183 30.183-26.792 45.874-39.312 14.676-10.514 22.937-26.976 31.429-42.355 8.699-15.448 13.476-32.602 20.583-48.742 5.653-14.872 13.153-28.89 20.214-43.093v-14.249c-6.276 11.482-11.538 23.472-17.33 35.184-10.453 21.005-16.729 43.831-27.505 64.698-8.077 15.586-15.969 32.279-30.345 43.162-15.46 12.243-35.766 19.529-45.966 37.444-15.829 27.207-16.96 60.316-13.43 90.843.785 29.075 8.954 57.181 13.2 85.818 4.361 36.657 8.491 73.367 12.991 110.027 3.669 29.35 11.215 58.01 16.822 86.99 5.146 23.52-2.4 46.81-6.346 69.79-3.069 20.73-1.269 41.9 2.931 62.33z" fill="#fff"/><path d="M316.601 1295.37c2.377 13.51 11.515 24.26 20.399 34.13v-4.41c-7.569-8.83-15.322-18.35-17.468-30.11-3.831-27.41 3.023-54.85 1.315-82.33-.53-14.05-3.253-27.86-4.246-41.85 4.754 14.98 4.869 30.96 6.415 46.5 1.985 22.97-1.707 45.98.416 68.92.9 11.23 6.069 21.58 13.568 29.88v-9.36c-3.415-6.57-7.246-13.21-7.823-20.77-1.269-14.39-1.892-28.94.185-43.28 1.638-10.82-.923-22.02 2.261-32.65.693 7.26.554 14.55.97 21.81 4.315-.85 1.546-6.8 2.353-9.87-.346-10.6-2.03-21.12-3.276-31.65-3.254-28.82-14.446-56.56-13.2-85.91-1.269-25.57 5.677-50.68 4.615-76.18-3.069-30.921-3.045-62.693-13.614-92.298-4.384-12.52-7.73-26.654-2.93-39.566 5.284-13.165 19.475-18.491 29.005-27.944-15.483 5.833-31.313 17.661-33.851 35.069-2.746 16.993 5.815 32.81 9.599 48.926 5.838 26.469 7.13 53.653 8.561 80.653.646 21.58-4.823 42.84-4.038 64.44-.854 18.66 1.638 37.15 4.592 55.5-12.184-36.34-9.323-75.46-6.484-113.07.553-33.73 2.076-68.593-9.992-100.757-5.607-15.517-11.907-33.686-3.946-49.526 8.007-13.926 24.091-19.483 37.013-27.714v-5.28c-15.807 6.133-31.59 14.756-41.72 28.705-8.238 14.803-5.285 32.994.092 48.281 15.853 41.986 15.53 88.081 9.946 132.021-1.916 22.14-.97 44.52 3.553 66.31 2.054 12.55 6.854 24.7 6.807 37.54-5.699-25.27-13.614-50.49-13.337-76.66.092-19.37-.6-38.83 1.707-58.11 1.731-25.18 1.639-50.745-4.13-75.439-3.508-18.814-14.676-35.876-13.892-55.52-.992-11.759 3.416-23.818 12.738-31.265 11.445-8.946 25.198-14.203 38.236-20.359v-4.22c-17.168 11.137-40.659 15.702-50.489 35.508-8.099 18.33-2.238 39.173 4.777 56.881 9.414 26.676 12.299 55.428 10.684 83.584a1917.216 1917.216 0 00-3.577 55.19c.646 24.47 3.161 49.02 9.645 72.7 4.731 16.72 7.615 33.9 9.023 51.21 4.776 30.74-5.031 61.59-.462 92.34zm7.084-123.12c-2.284-1.36-2.122-7.08 1.224-6.5 2.215 1.4 2.099 7.1-1.224 6.5zm-2.515-11.34c-2.146-2.7-1.592-4.22 1.662-4.57 2.123 2.7 1.569 4.22-1.662 4.57z" fill="#fff"/><path d="M332.523 1249.91c-1.2 13.67-1.061 27.87 4.477 40.67V1279c-2.008-9.82-2.215-19.8-2.538-29.76l-1.939.67zM333.1 1243.98c3.392-.37 3.369-8.83 0-9.22-1.915 2.53-1.915 6.68 0 9.22zM304.533 1215.07l1.846-.42c-.392-20.75-2.861-41.59-8.746-61.56-6.83-24.05-9.83-49-11.237-73.9-.877-16.25 2.353-32.32 2.284-48.55-.323-21.12 1.546-42.567-3.438-63.341-3.461-20.451-13.73-39.058-16.568-59.671-1.985-13.488-.046-27.922 7.107-39.704 5.677-9.199 15.414-14.733 25.221-18.56 12.161-4.773 24.206-9.892 35.998-15.518v-4.288c-15.345 9.822-33.228 14.318-49.15 22.895-15.207 7.955-22.222 25.685-22.684 42.056-.876 18.422 5.861 35.853 11.838 52.892 10.753 32.003 10.638 66.359 7.5 99.609-2.816 39.49 1.407 79.52 12.922 117.45 5.238 16.41 3.669 33.89 7.107 50.61zM327.262 1092.57c-6.161 31.63 1.246 63.77 9.738 94.25v-14.11c-5.907-20.7-10.615-42.15-9.069-63.82.646-13.97 4.985-27.35 9.069-40.63v-19.57c-3.069 14.66-5.93 29.37-9.738 43.88z" fill="#fff"/><path d="M337 1102.94c-6.646 15.73-5.792 33.48 0 49.3v-18.1c-4.8-4.31-4.684-11.3 0-15.64v-15.56zM321.147 954.087c5.377 31.012 7.454 62.673 15.853 93.103v-14.99c-7.338-26.95-8.007-55.102-13.753-82.355-3.369-14.802-9.853-29.859-6.138-45.26 2.4-10.584 11.907-16.947 19.891-23.265v-3.942c-10.015 7.262-20.906 15.54-23.468 28.452-3.207 16.485 4.915 32.279 7.615 48.257z" fill="#fff"/><path d="M327.655 943.066c4.222 16.486 3.53 33.894 9.345 50.01v-13.857c-2.838-14.018-4.246-28.313-7.684-42.217-1.846-7.954-4.177-16.232-2.377-24.44 1.385-7.447 6.069-13.58 10.061-19.829v-2.444c-4.984 5.142-9.992 10.653-11.976 17.731-4.292 11.551.231 23.633 2.631 35.046zM337 556.174c-4.407-.092-4.361 6.203 0 6.11v-6.11zM332.892 552.162c3.416-.276 3.277-8.761-.115-9.038-1.961 2.467-1.892 6.618.115 9.038zM331.9 540.404c1.8-2.859 3.508-5.811 5.1-8.808v-9.776c-2.446 5.972-4.407 12.151-5.1 18.584zM267.797 500.285c3.023 3.943 6.046 9.453 11.722 9.476 9.484 1.499 17.122-5.234 24.414-10.145 10.038-7.309 21.414-12.52 33.067-16.785v-3.851c-12.461 5.972-25.475 11.091-36.505 19.576-6.531 4.657-14.007 10.836-22.591 8.185-11.976-10.514-17.399-27.276-31.775-35.462-14.376-10.421-34.428-5.487-48.481-16.162-12.092-12.082-11.561-30.804-19.337-45.33-6.761-13.88-18.83-24.186-30.367-34.078-17.215-14.11-39.69-20.774-55.289-36.937-9.576-9.66-11.307-23.587-16.822-35.438-.208 13.857 5.815 27.069 14.745 37.398 14.884 16.186 36.967 22.504 53.904 36.038 14.469 11.782 29.421 25.132 34.959 43.6 4.869 13.396 6.254 29.928 18.622 38.966 13.592 8.001 30.852 4.957 44.42 13.165 11.423 6.087 18.391 17.339 25.314 27.784z" fill="#fff"/><path d="M297.703 461.25c11.699 7.424 26.236 4.334 39.297 4.496v-2.329c-12.345-.576-25.891 2.26-37.105-4.335-10.43-5.764-15.922-16.808-22.176-26.4-8.168-13.096-19.152-24.117-27.667-36.959-6.692-9.915-13.268-20.129-22.545-27.853-19.129-16.324-43.335-24.578-65.003-36.798-19.152-10.814-32.282-30.066-39.459-50.495-6.784-20.912-5.884-45.606-21.806-62.553 2.446 6.963 5.654 13.604 8.353 20.452 5.677 14.272 5.815 30.019 11.192 44.384 7.707 20.774 21.206 40.349 41.005 51.186 21.714 11.966 45.643 20.497 64.772 36.706 9.807 8.277 16.015 19.644 23.376 29.928 8.122 11.736 18.345 21.881 25.729 34.147 6.045 9.73 11.86 20.382 22.037 26.423zM317.594 425.258c4.776 7.724 12.276 13.004 19.406 18.353v-3.781c-9.046-6.179-16.707-14.226-21.714-24.025-10.176-19.091-23.537-36.176-36.528-53.399-12.299-15.863-25.106-31.934-42.136-42.978-16.545-10.929-36.39-18.215-48.389-34.839-9.968-12.289-14.63-27.875-16.153-43.439-1.846-14.341-.576-29.881-8.145-42.816-8.884-14.088-25.729-20.636-34.705-34.654-7.846-12.497-10.707-28.637-5.469-42.678 4.961-13.788 13.222-27.184 12.253-42.379-1.269-16.716-10.915-30.988-20.007-44.476C108.623 23.172 102.093 11.667 95.886 0h-3.97c9.115 14.895 17.399 30.297 27.483 44.592 8.238 11.62 14.122 25.523 13.223 40.026-.808 15.517-10.731 28.406-13.892 43.324-2.677 11.989.946 24.463 6.623 35.046 9.069 16.647 29.329 23.449 37.866 40.488 6.6 15.102 4.062 32.025 7.246 47.842 2.838 17.731 12.322 34.055 25.821 45.791 14.699 12.981 33.875 19.391 48.689 32.21 19.961 17.27 34.706 39.427 50.512 60.317 8.538 11.113 14.607 23.817 22.107 35.622z" fill="#fff"/><path d="M290.688 313.548c15.76 19.437 27.898 41.848 46.312 59.095v-7.401c-6.23-9.292-14.007-17.408-20.376-26.585-7.914-11.275-15.137-23.149-24.759-33.109-16.384-17.662-38.052-29.375-54.32-47.151-7.061-7.609-11.93-17.178-13.868-27.392-2.608-12.243-1.015-25.454-6.646-36.983-6.392-13.211-17.422-23.748-22.291-37.767-5.584-16.347-13.983-32.74-11.906-50.517.784-13.304 6.507-26.584 2.907-39.934-5.33-23.426-20.283-43-27.321-65.804h-7.015c6.899 21.466 20.491 40.096 26.652 61.815 4.477 15.333.208 31.127-.946 46.598-1.546 17.753 6.761 34.124 12.161 50.54 4.522 14.18 15.783 24.556 22.267 37.675 6.761 16.877 2.585 36.522 11.861 52.661 15.922 27.622 47.166 40.488 67.288 64.259zM74.518 300.798c3.3.461 3.323-5.234 1.2-6.733-3.323-.438-3.37 5.304-1.2 6.733zM49.943 222.428c14.214 20.451 18.644 45.399 24.967 68.94-.138-12.474-2.307-24.901-6.692-36.614-5.607-14.872-10.937-30.62-22.521-42.056-11.676-11.39-22.268-23.84-33.621-35.553-5.954-5.834-10.246-13.903-9.276-22.457 1.476-11.736 7.36-22.435 13.845-32.141 7.015-10.514 18.322-18.4 22.198-30.827 2.815-12.935-3.576-25.294-8.122-37.03C22.575 36.13 17.614 15.563 3.907 0H1.6c8.93 13.004 15.83 27.23 20.952 42.148C27.675 56.95 36.56 71.153 36.674 87.224c-2.261 14.387-15.783 22.733-22.937 34.539-7.13 11.758-15.16 24.855-13.522 39.173 1.8 13.557 13.984 21.627 22.268 31.288 8.86 10.329 19.037 19.506 27.46 30.204zM312.194 253.024c8.561 7.955 16.753 16.279 24.806 24.717v-4.404c-10.892-11.828-22.729-22.71-35.005-33.063-10.015-8.738-19.868-18.699-23.768-31.795-3.692-11.782-7.292-23.725-13.891-34.262-11.238-19.414-20.722-40.165-25.452-62.161-3.693-16.186 3.369-32.464.276-48.65C235.191 41.41 225.777 20.982 218.462 0h-3.9c8.1 18.883 15.738 38.136 20.491 58.172 5.03 19.137-3.023 38.874 1.661 58.08 5.769 23.379 16.522 45.26 28.545 66.011 7.638 13.419 8.676 29.697 17.722 42.402 7.868 11.228 19.291 19.137 29.213 28.359zM58.273 170.205c7.015 20.497 24.39 35 41.397 47.312-5.123-7.424-11.907-13.442-18.714-19.275-11.838-10.076-20.26-24.325-22.683-39.75-1.823-14.203 3.784-28.498 12.645-39.45 6.277-8.485 14.607-16.324 16.891-27.023 1.662-14.48-6.346-27.622-13.314-39.657C64.157 35.646 56.08 17.707 47.658 0h-3.946c9.6 17.523 17.33 36.06 27.852 53.1 6.484 11.274 14.122 23.172 13.73 36.66-2.054 11.966-11.791 20.359-18.506 29.858-11.053 14.042-14.861 33.732-8.515 50.587z" fill="#fff"/></svg>