<svg width="1531" height="253" fill="none" xmlns="http://www.w3.org/2000/svg"><path d="M0 191.334h53.373v-5.849l-11.21-.732c-7.068-.731-11.455-1.95-10.724-8.774l9.749-158.917 67.996 143.074h1.462l67.752-143.318 9.749 159.161c.731 6.824-3.656 8.043-11.211 8.774l-10.723.732v5.849h68.727v-5.849l-10.967-.732c-7.555-.731-10.48-1.95-11.211-8.774l-9.749-154.043c-.731-6.824 3.656-8.043 11.211-8.774l10.967-.731V6.58H173.28l-54.592 115.532L64.097 6.581H9.749v5.85l10.967.73c7.067.732 11.698 1.95 10.967 8.775L21.934 175.98c-.73 6.824-4.143 8.043-11.21 8.774L0 185.485v5.849zM251.805 191.334h63.366v-5.606l-13.161-.731c-8.53-.244-9.504-1.219-9.504-7.8v-60.203c0-17.549 9.017-29.98 37.531-28.03l9.505.975V66.784h-2.193c-21.203 0-38.751 10.48-44.843 36.805V65.078l-40.701 15.6v1.462l17.792 9.993v85.064c0 6.581-1.219 7.8-9.262 8.044l-8.53.487v5.606zM354.169 191.334h58.491v-5.606l-8.286-.487c-7.799-.731-9.505-1.463-9.505-8.044V65.078l-40.7 15.6v1.462l17.791 9.993v85.064c0 6.581-1.706 7.313-9.261 8.044l-8.53.487v5.606zm13.648-175.978c0 8.53 7.068 15.842 15.598 15.842 8.529 0 15.597-7.312 15.597-15.843C399.012 7.313 391.944 0 383.415 0c-8.53 0-15.598 7.312-15.598 15.355zM454.236 253c10.236 0 12.917-7.8 19.985-23.399l65.315-144.536c3.168-7.069 5.605-9.994 13.16-10.237l7.799-.244v-5.606H514.19v5.606l9.017.244c7.799.243 10.967 3.9 7.068 12.674l-33.877 76.046-33.388-79.946c-2.194-5.606.243-8.53 7.799-8.774l8.042-.244v-5.606h-59.222v5.606l7.067.244c7.556.243 9.018 2.924 11.942 9.505l45.087 107.001-12.916 28.274c-22.666 3.9-29.246 13.162-29.246 21.205 0 7.069 5.605 12.187 12.673 12.187zM602.163 194.259c16.816 0 29.733-7.068 36.313-28.517l1.706 27.298 38.507-7.068v-5.362h-18.523l.731-76.778c.244-29.248-11.942-38.754-35.582-38.754-13.648 0-27.783 5.118-41.187 12.187-11.455 5.606-22.178 13.162-22.178 21.449 0 6.581 5.849 11.212 16.572 11.212 3.169 0 6.093-.244 9.261-.975-4.874-22.668 6.093-36.805 25.59-36.805 16.817 0 24.859 10.481 24.859 24.13 0 10.481-.244 17.306-30.708 29.005-18.035 7.069-44.112 13.406-44.112 36.074 0 17.549 15.841 32.904 38.751 32.904zm9.748-9.993c-14.866 0-22.178-12.187-22.178-24.861 0-16.575 10.967-23.399 27.783-32.418 9.505-4.874 14.136-8.043 20.716-12.918l-.487 34.855c0 25.592-13.405 35.342-25.834 35.342zM755.769 191.334h68.727v-5.849l-10.967-.732c-7.555-.731-11.211-1.95-11.211-8.774V100.42h17.791l82.131 90.914h31.439L848.38 97.495c33.388-4.143 53.86-18.524 53.86-45.823 0-35.585-32.414-45.091-76.526-45.091h-69.945v5.85l10.967.73c7.067.732 10.967 1.95 10.967 8.775V175.98c0 6.824-3.9 8.043-10.967 8.774l-10.967.732v5.849zm46.549-98.47V14.137h21.447c31.195 0 50.936 10.48 50.936 39.242 0 29.004-19.741 39.485-50.936 39.485h-21.447zM998.003 194.259c29.977 0 51.907-14.624 59.467-47.529h-5.61c-9.01 28.03-28.27 32.905-43.87 32.905-27.047 0-46.788-24.374-46.788-59.96v-4.631h93.098c-7.07-36.317-33.88-49.722-56.541-49.722-32.414 0-61.416 25.836-61.416 64.834 0 40.217 26.565 64.103 61.66 64.103zm-.975-123.087c20.232 0 28.272 16.574 29.002 36.804h-64.097c3.656-24.618 17.547-36.805 35.095-36.805zM1118.43 194.259c29.98 0 51.91-15.843 51.91-38.023 0-22.18-17.3-32.905-37.77-38.267l-14.87-3.9c-9.99-2.681-18.28-8.774-18.28-22.18 0-13.405 11.95-20.474 24.37-20.474 6.83 0 12.92.731 15.85 5.606l19.49 31.93h5.12l-5.85-38.267c-9.26-3.656-19.01-5.362-29-5.362-25.35 0-47.77 12.187-47.77 35.586 0 19.255 12.68 32.417 30.95 37.291l14.63 3.9c11.94 3.413 23.15 9.262 23.15 23.643 0 14.868-16.57 22.667-29 22.667-9.02 0-14.14-.243-17.79-6.824l-18.28-34.611h-4.88l5.12 43.142c10.48 2.924 20.96 4.143 32.9 4.143zM1256.54 194.259c33.88 0 65.56-25.592 65.56-65.322 0-37.048-29.98-63.615-64.83-63.615-33.14 0-65.56 25.349-65.56 65.078 0 37.292 29.98 63.859 64.83 63.859zm.49-7.068c-20.47 0-38.75-16.331-38.75-57.522 0-41.68 18.28-57.766 38.75-57.766 19.98 0 38.26 16.086 38.26 57.766 0 41.191-18.28 57.522-38.26 57.522zM1340.9 191.334h63.37v-5.606l-13.17-.731c-8.53-.244-9.5-1.219-9.5-7.8v-60.203c0-17.549 9.02-29.98 37.53-28.03l9.51.975V66.784h-2.2c-21.2 0-38.75 10.48-44.84 36.805V65.078l-40.7 15.6v1.462l17.79 9.993v85.064c0 6.581-1.22 7.8-9.26 8.044l-8.53.487v5.606zM1483.72 81.409h39.48l7.8-12.431h-47.28V42.654h-1.46l-47.77 37.292v1.463h26.32v87.258c0 19.255 8.29 24.617 25.59 24.617 14.87 0 31.44-7.068 38.75-12.918l-2.19-4.387c-7.07 3.656-14.63 5.362-22.67 5.362-10.72 0-16.57-4.387-16.57-19.012v-80.92z" fill="#F0F0F0"/></svg>